<svg width="26" height="28" viewBox="0 0 26 28" fill="none" xmlns="http://www.w3.org/2000/svg">
<path d="M12.9993 0.872071C6.62413 0.871222 1.18956 5.66016 0.16884 12.1783C-0.851878 18.6964 2.84266 25.0191 8.89128 27.1055C9.54273 27.2269 9.77596 26.8126 9.77596 26.4564C9.77596 26.1365 9.76553 25.289 9.76162 24.1622C6.14606 24.9719 5.38255 22.3565 5.38255 22.3565C5.14453 21.5427 4.63283 20.8441 3.94023 20.3875C2.76762 19.5522 4.03014 19.5711 4.03014 19.5711C4.86488 19.6896 5.59955 20.2019 6.01967 20.9584C6.37528 21.6281 6.97439 22.123 7.68388 22.333C8.39338 22.5431 9.15449 22.451 9.7981 22.0772C9.85859 21.3943 10.1519 20.7561 10.6255 20.2769C7.74081 19.9382 4.70765 18.783 4.70765 13.6237C4.69164 12.2893 5.17005 10.9993 6.04443 10.0191C5.6488 8.85763 5.69539 7.5836 6.17472 6.4564C6.17472 6.4564 7.26525 6.09338 9.74729 7.83427C11.876 7.22969 14.1227 7.22969 16.2514 7.83427C18.7347 6.09203 19.824 6.4564 19.824 6.4564C20.3055 7.58307 20.3521 8.85798 19.9543 10.0191C20.8318 10.9992 21.3099 12.2926 21.2884 13.6291C21.2884 18.8019 18.2527 19.9382 15.3576 20.2715C15.9821 20.9328 16.3024 21.8401 16.2371 22.7627C16.2371 24.563 16.2214 26.0151 16.2214 26.4564C16.2214 26.8167 16.4534 27.235 17.1165 27.1028C23.1626 25.0128 26.8532 18.6898 25.8304 12.1734C24.8076 5.65702 19.3732 0.87056 12.9993 0.872071Z" fill="#BAB2E7"/>
</svg>
