<svg width="26" height="28" viewBox="0 0 26 28" fill="none" xmlns="http://www.w3.org/2000/svg">
<path d="M12.9993 0.872315C6.62413 0.871467 1.18956 5.66041 0.16884 12.1785C-0.851878 18.6967 2.84266 25.0193 8.89128 27.1057C9.54273 27.2272 9.77596 26.8129 9.77596 26.4566C9.77596 26.1368 9.76553 25.2893 9.76162 24.1624C6.14606 24.9721 5.38255 22.3567 5.38255 22.3567C5.14453 21.5429 4.63283 20.8444 3.94023 20.3878C2.76762 19.5524 4.03014 19.5713 4.03014 19.5713C4.86488 19.6899 5.59955 20.2022 6.01967 20.9586C6.37528 21.6283 6.97439 22.1232 7.68388 22.3333C8.39338 22.5434 9.15449 22.4512 9.7981 22.0774C9.85859 21.3945 10.1519 20.7563 10.6255 20.2771C7.74081 19.9384 4.70765 18.7832 4.70765 13.624C4.69164 12.2896 5.17005 10.9995 6.04443 10.0194C5.6488 8.85787 5.69539 7.58384 6.17472 6.45665C6.17472 6.45665 7.26525 6.09363 9.74729 7.83451C11.876 7.22993 14.1227 7.22993 16.2514 7.83451C18.7347 6.09228 19.824 6.45665 19.824 6.45665C20.3055 7.58331 20.3521 8.85823 19.9543 10.0194C20.8318 10.9995 21.3099 12.2929 21.2884 13.6294C21.2884 18.8021 18.2527 19.9384 15.3576 20.2717C15.9821 20.9331 16.3024 21.8403 16.2371 22.763C16.2371 24.5632 16.2214 26.0153 16.2214 26.4566C16.2214 26.8169 16.4534 27.2353 17.1165 27.103C23.1626 25.0131 26.8532 18.6901 25.8304 12.1737C24.8076 5.65726 19.3732 0.870804 12.9993 0.872315Z" fill="#3730A3"/>
</svg>
