
<svg width="24" height="26" viewBox="0 0 24 26" fill="none" xmlns="http://www.w3.org/2000/svg">
<path d="M13.3333 25.6029H7.99998V8.79929H13.3333V11.5999C14.4701 10.0809 16.1941 9.17537 18.0333 9.13116C21.3407 9.15044 24.0096 11.9771 24 15.4507V25.6029H18.6666V16.1509C18.4533 14.5862 17.1756 13.4253 15.6706 13.4287C15.0123 13.4505 14.391 13.7532 13.9499 14.2669C13.5088 14.7806 13.2862 15.4609 13.3333 16.1509V25.6029ZM5.33332 25.6029H0V8.79929H5.33332V25.6029ZM2.66666 5.99868C1.1939 5.99868 0 4.7448 0 3.19807C0 1.65134 1.1939 0.397461 2.66666 0.397461C4.13942 0.397461 5.33332 1.65134 5.33332 3.19807C5.33332 3.94084 5.05237 4.65318 4.55228 5.1784C4.05218 5.70362 3.3739 5.99868 2.66666 5.99868Z" fill="#3730A3"/>
</svg>
