<svg width="24" height="26" viewBox="0 0 24 26" fill="none" xmlns="http://www.w3.org/2000/svg">
<path d="M13.3333 25.6027H7.99998V8.79904H13.3333V11.5997C14.4701 10.0807 16.1941 9.17513 18.0333 9.13091C21.3407 9.1502 24.0096 11.9769 24 15.4505V25.6027H18.6666V16.1506C18.4533 14.586 17.1756 13.4251 15.6706 13.4284C15.0123 13.4503 14.391 13.753 13.9499 14.2667C13.5088 14.7804 13.2862 15.4607 13.3333 16.1506V25.6027ZM5.33332 25.6027H0V8.79904H5.33332V25.6027ZM2.66666 5.99843C1.1939 5.99843 0 4.74456 0 3.19783C0 1.65109 1.1939 0.397217 2.66666 0.397217C4.13942 0.397217 5.33332 1.65109 5.33332 3.19783C5.33332 3.94059 5.05237 4.65294 4.55228 5.17815C4.05218 5.70337 3.3739 5.99843 2.66666 5.99843Z" fill="#BAB2E7"/>
</svg>
